<svg xmlns="http://www.w3.org/2000/svg" width="820" height="380" viewBox="0 0 820 380">
<rect width="100%" height="100%" fill="white"/>
<text x="56" y="18" font-family="Arial" font-size="14" font-weight="700">HiNetLite NPU v1 notebooks: training patch PSNR and validation PSNR</text>
<line x1="56" y1="308" x2="666" y2="308" stroke="#111827" stroke-width="1"/>
<line x1="56" y1="28" x2="56" y2="308" stroke="#111827" stroke-width="1"/>
<line x1="56" y1="329.5" x2="666" y2="329.5" stroke="#e5e7eb" stroke-width="1"/>
<text x="48" y="333.5" font-family="Arial" font-size="10" text-anchor="end" fill="#374151">22</text>
<line x1="56" y1="286.5" x2="666" y2="286.5" stroke="#e5e7eb" stroke-width="1"/>
<text x="48" y="290.5" font-family="Arial" font-size="10" text-anchor="end" fill="#374151">23</text>
<line x1="56" y1="243.4" x2="666" y2="243.4" stroke="#e5e7eb" stroke-width="1"/>
<text x="48" y="247.4" font-family="Arial" font-size="10" text-anchor="end" fill="#374151">24</text>
<line x1="56" y1="200.3" x2="666" y2="200.3" stroke="#e5e7eb" stroke-width="1"/>
<text x="48" y="204.3" font-family="Arial" font-size="10" text-anchor="end" fill="#374151">25</text>
<line x1="56" y1="157.2" x2="666" y2="157.2" stroke="#e5e7eb" stroke-width="1"/>
<text x="48" y="161.2" font-family="Arial" font-size="10" text-anchor="end" fill="#374151">26</text>
<line x1="56" y1="114.2" x2="666" y2="114.2" stroke="#e5e7eb" stroke-width="1"/>
<text x="48" y="118.2" font-family="Arial" font-size="10" text-anchor="end" fill="#374151">27</text>
<line x1="56" y1="71.1" x2="666" y2="71.1" stroke="#e5e7eb" stroke-width="1"/>
<text x="48" y="75.1" font-family="Arial" font-size="10" text-anchor="end" fill="#374151">28</text>
<line x1="56" y1="28.0" x2="666" y2="28.0" stroke="#e5e7eb" stroke-width="1"/>
<text x="48" y="32.0" font-family="Arial" font-size="10" text-anchor="end" fill="#374151">29</text>
<line x1="56.0" y1="308" x2="56.0" y2="312" stroke="#111827"/>
<text x="56.0" y="326" font-family="Arial" font-size="10" text-anchor="middle" fill="#374151">1</text>
<line x1="128.9" y1="308" x2="128.9" y2="312" stroke="#111827"/>
<text x="128.9" y="326" font-family="Arial" font-size="10" text-anchor="middle" fill="#374151">20</text>
<line x1="205.6" y1="308" x2="205.6" y2="312" stroke="#111827"/>
<text x="205.6" y="326" font-family="Arial" font-size="10" text-anchor="middle" fill="#374151">40</text>
<line x1="282.4" y1="308" x2="282.4" y2="312" stroke="#111827"/>
<text x="282.4" y="326" font-family="Arial" font-size="10" text-anchor="middle" fill="#374151">60</text>
<line x1="359.1" y1="308" x2="359.1" y2="312" stroke="#111827"/>
<text x="359.1" y="326" font-family="Arial" font-size="10" text-anchor="middle" fill="#374151">80</text>
<line x1="435.8" y1="308" x2="435.8" y2="312" stroke="#111827"/>
<text x="435.8" y="326" font-family="Arial" font-size="10" text-anchor="middle" fill="#374151">100</text>
<line x1="512.5" y1="308" x2="512.5" y2="312" stroke="#111827"/>
<text x="512.5" y="326" font-family="Arial" font-size="10" text-anchor="middle" fill="#374151">120</text>
<line x1="589.3" y1="308" x2="589.3" y2="312" stroke="#111827"/>
<text x="589.3" y="326" font-family="Arial" font-size="10" text-anchor="middle" fill="#374151">140</text>
<line x1="666.0" y1="308" x2="666.0" y2="312" stroke="#111827"/>
<text x="666.0" y="326" font-family="Arial" font-size="10" text-anchor="middle" fill="#374151">160</text>
<text x="361.0" y="346" font-family="Arial" font-size="11" text-anchor="middle">Epoch</text>
<text transform="translate(14 168.0) rotate(-90)" font-family="Arial" font-size="11" text-anchor="middle">PSNR (dB)</text>
<polyline points="56.0,228.3 59.8,219.2 63.7,212.4 67.5,207.1 71.3,202.9 75.2,199.0 79.0,197.4 82.9,195.3 86.7,191.4 90.5,189.1 94.4,186.2 98.2,184.7 102.0,180.8 105.9,179.0 109.7,174.3 113.5,173.0 117.4,168.4 121.2,164.7 125.1,162.7 128.9,158.0 132.7,155.9 136.6,152.5 140.4,151.4 144.2,146.7 148.1,143.3 151.9,141.4 155.7,138.2 159.6,136.1 163.4,134.0 167.3,131.8 171.1,129.5 174.9,125.4 178.8,124.5 182.6,187.3 186.4,182.5 190.3,179.6 194.1,176.1 197.9,172.9 201.8,169.7 205.6,166.6 209.5,163.7 213.3,159.4 217.1,155.2 221.0,151.8 224.8,148.7 228.6,144.9 232.5,142.7 236.3,137.7 240.2,135.6 244.0,133.1 247.8,130.2 251.7,127.9 255.5,125.1 259.3,122.8 263.2,119.9 267.0,119.0 270.8,116.6 274.7,113.9 278.5,112.2 282.4,109.3 286.2,108.1 290.0,105.3 293.9,103.7 297.7,103.3 301.5,99.8 305.4,99.7 309.2,97.5 313.0,95.9 316.9,93.6 320.7,91.9 324.6,91.1 328.4,90.3 332.2,88.0 336.1,87.4 339.9,86.2 343.7,84.4 347.6,81.3 351.4,80.9 355.2,79.2 359.1,77.9 362.9,77.1 366.8,76.3 370.6,75.1 374.4,74.4 378.3,71.5 382.1,71.1 385.9,69.8 389.8,69.1 393.6,68.0 397.4,67.9 401.3,66.0 405.1,64.5 409.0,63.3 412.8,63.0 416.6,62.7 420.5,61.2 424.3,60.2 428.1,60.0 432.0,58.1 435.8,57.9 439.6,56.1 443.5,55.9 447.3,54.3 451.2,54.3 455.0,53.7 458.8,52.0 462.7,51.5 466.5,51.3 470.3,50.8 474.2,50.2 478.0,49.1 481.8,48.4 485.7,47.6 489.5,46.5 493.4,46.2 497.2,45.7 501.0,44.4 504.9,44.7 508.7,43.8 512.5,43.7 516.4,43.2 520.2,42.5 524.1,42.1 527.9,41.7 531.7,41.1 535.6,40.6 539.4,40.3 543.2,39.6 547.1,39.4 550.9,39.4 554.7,38.2 558.6,38.9 562.4,37.6 566.3,38.2 570.1,37.8 573.9,37.0 577.8,36.9 581.6,35.9 585.4,36.2 589.3,36.2 593.1,36.3 596.9,36.0 600.8,35.3 604.6,34.7 608.5,35.2 612.3,34.2 616.1,34.3 620.0,34.9 623.8,33.8 627.6,34.3 631.5,34.0 635.3,34.1 639.1,33.6 643.0,32.9 646.8,34.1 650.7,33.6 654.5,33.0 658.3,33.5 662.2,33.8 666.0,32.5" fill="none" stroke="#2563eb" stroke-width="2.2"/>
<polyline points="56.0,281.0 59.8,280.3 63.7,279.2 67.5,277.4 71.3,275.0 75.2,271.6 79.0,267.3 82.9,262.4 86.7,257.4 90.5,252.8 94.4,248.9 98.2,245.7 102.0,243.2 105.9,241.4 109.7,240.1 113.5,239.6 117.4,239.1 121.2,239.0 125.1,239.1 128.9,239.5 132.7,240.1 136.6,240.8 140.4,241.6 144.2,242.4 148.1,243.4 151.9,244.3 155.7,245.2 159.6,246.2 163.4,247.1 167.3,247.9 171.1,248.7 174.9,249.7 178.8,250.6 182.6,240.6 186.4,236.9 190.3,235.1 194.1,234.1 197.9,233.6 201.8,233.3 205.6,233.3 209.5,233.5 213.3,233.8 217.1,234.2 221.0,234.8 224.8,235.6 228.6,236.4 232.5,237.2 236.3,238.2 240.2,239.2 244.0,240.2 247.8,241.2 251.7,242.2 255.5,243.2 259.3,244.2 263.2,245.3 267.0,246.3 270.8,247.2 274.7,248.2 278.5,249.1 282.4,250.1 286.2,251.0 290.0,251.9 293.9,252.8 297.7,253.6 301.5,254.5 305.4,255.3 309.2,256.1 313.0,256.8 316.9,257.6 320.7,258.4 324.6,259.1 328.4,259.8 332.2,260.5 336.1,261.2 339.9,261.9 343.7,262.5 347.6,263.2 351.4,263.9 355.2,264.6 359.1,265.2 362.9,265.9 366.8,266.5 370.6,267.1 374.4,267.7 378.3,268.3 382.1,268.9 385.9,269.6 389.8,270.2 393.6,270.8 397.4,271.4 401.3,272.0 405.1,272.6 409.0,273.2 412.8,273.8 416.6,274.3 420.5,274.9 424.3,275.4 428.1,276.0 432.0,276.5 435.8,277.1 439.6,277.7 443.5,278.2 447.3,278.7 451.2,279.2 455.0,279.8 458.8,280.3 462.7,280.8 466.5,281.3 470.3,281.8 474.2,282.3 478.0,282.8 481.8,283.2 485.7,283.8 489.5,284.2 493.4,284.7 497.2,285.2 501.0,285.6 504.9,286.1 508.7,286.5 512.5,286.9 516.4,287.3 520.2,287.8 524.1,288.2 527.9,288.6 531.7,289.0 535.6,289.3 539.4,289.7 543.2,290.0 547.1,290.4 550.9,290.8 554.7,291.1 558.6,291.4 562.4,291.8 566.3,292.1 570.1,292.4 573.9,292.7 577.8,293.0 581.6,293.2 585.4,293.5 589.3,293.7 593.1,294.0 596.9,294.2 600.8,294.4 604.6,294.6 608.5,294.8 612.3,295.0 616.1,295.2 620.0,295.4 623.8,295.6 627.6,295.7 631.5,295.9 635.3,296.0 639.1,296.2 643.0,296.3 646.8,296.4 650.7,296.6 654.5,296.7 658.3,296.8 662.2,296.9 666.0,297.0" fill="none" stroke="#2563eb" stroke-width="2.2" stroke-dasharray="5,4"/>
<polyline points="205.6,180.4 209.5,177.1 213.3,175.6 217.1,173.7 221.0,171.7 224.8,170.1 228.6,169.7 232.5,168.4 236.3,166.1 240.2,164.9 244.0,163.5 247.8,163.2 251.7,161.5" fill="none" stroke="#059669" stroke-width="2.2"/>
<polyline points="205.6,232.0 209.5,230.9 213.3,230.2 217.1,229.8 221.0,229.5 224.8,229.3 228.6,229.3 232.5,229.4 236.3,229.6 240.2,229.8 244.0,230.1 247.8,230.5 251.7,230.9" fill="none" stroke="#059669" stroke-width="2.2" stroke-dasharray="5,4"/>
<polyline points="56.0,228.2 59.8,222.2 63.7,213.9 67.5,209.5 71.3,206.0 75.2,201.1 79.0,198.8 82.9,196.3 86.7,193.5 90.5,191.8 94.4,190.6 98.2,187.9 102.0,187.1 105.9,185.3 109.7,183.6 113.5,181.8 117.4,180.0 121.2,178.2 125.1,176.8 128.9,174.1 132.7,171.7 136.6,170.0 140.4,169.5 144.2,167.0 148.1,165.4 151.9,164.1 155.7,161.6 159.6,159.8 163.4,159.8 167.3,157.0 171.1,155.3 174.9,153.7 178.8,151.8" fill="none" stroke="#dc2626" stroke-width="2.2"/>
<polyline points="56.0,280.8 59.8,280.2 63.7,279.2 67.5,277.5 71.3,275.3 75.2,272.3 79.0,268.6 82.9,264.4 86.7,259.9 90.5,255.5 94.4,251.6 98.2,248.2 102.0,245.5 105.9,243.3 109.7,241.5 113.5,240.2 117.4,239.2 121.2,238.4 125.1,237.9 128.9,237.7 132.7,237.5 136.6,237.5 140.4,237.6 144.2,237.8 148.1,238.1 151.9,238.4 155.7,238.8 159.6,239.3 163.4,239.7 167.3,240.2 171.1,240.7 174.9,241.3 178.8,241.8" fill="none" stroke="#dc2626" stroke-width="2.2" stroke-dasharray="5,4"/>
<text x="690" y="38" font-family="Arial" font-size="11" font-weight="700">Legend</text>
<line x1="690" y1="58" x2="720" y2="58" stroke="#111827" stroke-width="2.2"/>
<text x="728" y="62" font-family="Arial" font-size="10">solid = train patch PSNR</text>
<line x1="690" y1="76" x2="720" y2="76" stroke="#111827" stroke-width="2.2" stroke-dasharray="5,4"/>
<text x="728" y="80" font-family="Arial" font-size="10">dash = validation PSNR</text>
<rect x="690" y="99" width="12" height="12" fill="#2563eb"/>
<text x="710" y="109" font-family="Arial" font-size="10">v3</text>
<rect x="690" y="117" width="12" height="12" fill="#059669"/>
<text x="710" y="127" font-family="Arial" font-size="10">v4</text>
<rect x="690" y="135" width="12" height="12" fill="#dc2626"/>
<text x="710" y="145" font-family="Arial" font-size="10">v5</text>
</svg>